Coordinates
version=1
nRows=28
nColumns=33
inDegrees=yes

Units are S.I. units (second, meters, Newtons, ...)
Angles are in degrees.

endheader
time	ground_thorax_rot_x	ground_thorax_rot_y	ground_thorax_rot_z	ground_thorax_tx	ground_thorax_ty	ground_thorax_tz	clav_prot_r	clav_elev_r	scapula_abduction_r	scapula_elevation_r	scapula_upward_rot_r	scapula_winging_r	shoulder_elv_r	plane_of_elev_r	axial_rot_r	elbow_flexion_r	pro_sup_r	wrist_flex_r	wrist_dev_r	clav_prot_l	clav_elev_l	scapula_abduction_l	scapula_elevation_l	scapula_upward_rot_l	scapula_winging_l	shoulder_elv_l	plane_of_elev_l	axial_rot_l	elbow_flexion_l	pro_sup_l	wrist_flex_l	wrist_dev_l	
4.5900	38.865666	6.809869	9.301272	-90.097911	788.553386	5.555668	17.894895	42.939108	44.999895	45.000000	-29.581782	-1161.038641	-1553.180265	145.874731	-150.420653	1450.126410	22.653002	16.903705	13.295577	7.702432	-45.000000	-44.999898	45.000000	-17.334708	2247.799113	-3532.805960	24.660106	-9.300279	723.760467	34.473242	11.976247	-20.840394	
4.6000	38.901069	6.706193	8.969144	-92.703384	790.164092	5.515156	17.394499	42.960365	44.999812	45.000000	-29.083285	-1161.375995	-1552.956553	145.991831	-150.018327	1450.390344	23.021748	17.141313	12.958471	7.691484	-45.000000	-44.999817	45.000000	-16.864873	2248.213462	-3532.590425	24.612605	-9.939690	724.081093	34.194009	11.700800	-20.961792	
4.6100	38.934618	6.615828	8.658033	-95.434376	791.806198	5.480356	16.931484	42.979524	44.999664	45.000000	-28.650405	-1161.717531	-1552.719129	146.090515	-149.716516	1450.644150	23.360953	17.375793	12.609170	7.711625	-45.000000	-44.999672	45.000000	-16.442667	2248.629322	-3532.358567	24.566697	-10.574035	724.375539	33.852730	11.428326	-21.065121	
4.6200	38.943282	6.605610	8.451301	-98.434033	793.514440	5.454023	16.662667	42.980230	44.999397	45.000000	-28.445084	-1162.073973	-1552.454465	146.146760	-149.553302	1450.887385	23.643386	17.563106	12.237388	7.714035	-45.000000	-44.999412	45.000000	-16.166567	2249.073588	-3532.091966	24.518178	-11.122762	724.659469	33.355485	11.238277	-21.148999	
4.6300	38.933471	6.661019	8.332568	-101.720978	795.293089	5.439652	16.555208	42.944590	44.998921	45.000000	-28.462718	-1162.440371	-1552.153673	146.159993	-149.562230	1451.119927	23.878210	17.720640	11.847278	7.739435	-45.000000	-44.998947	45.000000	-16.045615	2249.542727	-3531.792874	24.474683	-11.622486	724.929986	32.705454	11.101721	-21.208952	
4.6400	38.914356	6.740816	8.259304	-105.329854	797.149642	5.440589	16.512218	42.876235	44.998066	45.000000	-28.607321	-1162.816064	-1551.830118	146.155031	-149.709434	1451.342361	24.082841	17.862810	11.455729	7.763284	-45.000000	-44.998114	45.000000	-16.007902	2250.037370	-3531.466528	24.421658	-12.095564	725.189439	31.922987	11.014104	-21.255818	
4.6500	38.890646	6.835994	8.218625	-109.258761	799.081286	5.459585	16.546789	42.783793	44.996541	45.000000	-28.886043	-1163.198808	-1551.473696	146.126723	-149.986665	1451.561433	24.282288	17.994835	11.058737	7.811369	-45.000000	-44.996621	45.000000	-16.071074	2250.551110	-3531.115732	24.370543	-12.572625	725.436163	31.029467	10.955603	-21.286695	
4.6600	38.873196	6.902577	8.159899	-113.484518	801.079451	5.498587	16.560459	42.681484	44.993788	45.000000	-29.180584	-1163.582845	-1551.103905	146.107210	-150.323977	1451.776207	24.517241	18.131852	10.672277	7.866054	-45.000000	-44.993950	45.000000	-16.154186	2251.077922	-3530.750250	24.307948	-13.093188	725.675090	30.074187	10.907518	-21.313995	
4.6700	38.856357	6.962327	8.102860	-117.977493	803.133221	5.558608	16.584289	42.557698	44.988917	45.000000	-29.537260	-1163.970417	-1550.723277	146.086528	-150.705680	1451.985418	24.814337	18.267931	10.278492	7.933425	-45.000000	-44.989155	45.000000	-16.282744	2251.613942	-3530.372457	24.237300	-13.646969	725.899318	29.070710	10.863296	-21.336187	
4.6800	38.843744	7.009078	8.046138	-122.699572	805.230289	5.640160	16.586726	42.434017	44.980024	45.000000	-29.902269	-1164.352057	-1550.345201	146.087463	-151.043436	1452.189553	25.216369	18.402017	9.885246	8.007285	-45.000000	-44.980597	45.000000	-16.447763	2252.159862	-3529.989326	24.148541	-14.258541	726.109287	28.047580	10.821444	-21.360369	
4.6900	38.825975	7.095949	8.048133	-127.609292	807.356846	5.743232	16.645053	42.299782	44.964559	45.000000	-30.376142	-1164.734549	-1549.967898	146.084171	-151.319641	1452.386934	25.757294	18.518189	9.470538	8.120891	-45.000000	-44.965176	45.000000	-16.739732	2252.717148	-3529.601329	24.052501	-14.923774	726.296196	26.990654	10.779761	-21.377092	
4.7000	38.801896	7.242528	8.134252	-132.663447	809.498317	5.867256	16.742496	42.150200	44.935562	45.000000	-30.953722	-1165.109501	-1549.598834	146.088110	-151.480034	1452.578653	26.482742	18.612885	9.043052	8.279149	-45.000000	-44.937810	45.000000	-17.186515	2253.290301	-3529.216500	23.944220	-15.654809	726.463564	25.895604	10.741913	-21.388934	
4.7100	38.763840	7.482226	8.338359	-137.825441	811.639304	6.011024	16.857224	41.948702	44.887231	45.000000	-31.687822	-1165.487585	-1549.247004	146.081317	-151.540128	1452.763115	27.428911	18.680327	8.587266	8.480060	-45.000000	-44.888072	45.000000	-17.821112	2253.873750	-3528.836352	23.824143	-16.424158	726.602158	24.743343	10.708525	-21.393740	
4.7200	38.719848	7.792229	8.636274	-143.066846	813.763949	6.172645	16.950402	41.729466	44.790580	45.000000	-32.493575	-1165.840436	-1548.900054	146.080917	-151.458066	1452.952333	28.634134	18.722602	8.124630	8.702260	-45.000000	-44.800981	45.000000	-18.632776	2254.453344	-3528.466460	23.693053	-17.231678	726.712086	23.550780	10.684567	-21.393423	
4.7300	38.670650	8.165335	9.020682	-148.372270	815.855626	6.349545	17.008314	41.471708	44.654680	45.000000	-33.396273	-1166.181506	-1548.561043	146.066847	-151.278312	1453.151086	30.147204	18.725634	7.638600	8.933806	-45.000000	-44.639377	45.000000	-19.648047	2255.002127	-3528.098631	23.561000	-18.056957	726.796025	22.311815	10.671427	-21.386647	
4.7400	38.626246	8.557602	9.439666	-153.732624	817.897048	6.538587	17.023769	41.203003	44.471446	45.000000	-34.329423	-1166.490672	-1548.217738	146.048119	-151.022989	1453.369178	32.017311	18.689616	7.147671	9.148154	-45.000000	-44.388413	45.000000	-20.836240	2255.496821	-3527.732300	23.435322	-18.874277	726.856561	21.037847	10.673520	-21.371504	
4.7500	38.590230	8.937737	9.860864	-159.141610	819.870056	6.736236	16.956375	40.908492	44.265557	45.000000	-35.294519	-1166.780935	-1547.879558	146.019043	-150.760407	1453.617817	34.340886	18.607396	6.647586	9.323350	-45.000000	-44.033640	45.000000	-22.166936	2255.921615	-3527.363852	23.316560	-19.660308	726.897228	19.728520	10.689905	-21.349568	
4.7600	38.573885	9.260146	10.229340	-164.589713	821.754722	6.938419	16.866220	40.656704	44.012263	45.000000	-36.188054	-1167.012801	-1547.524316	146.004165	-150.451545	1453.917355	37.180619	18.492203	6.181788	9.453032	-45.000000	-43.616497	45.000000	-23.554932	2256.287615	-3527.008665	23.207114	-20.395850	726.914239	18.418321	10.721062	-21.311917	
4.7700	38.573333	9.542239	10.578140	-170.064341	823.529781	7.140605	16.776570	40.407453	43.761442	45.000000	-37.152432	-1167.217194	-1547.159288	145.973378	-150.233152	1454.289733	40.776951	18.315418	5.726729	9.566147	-45.000000	-43.128646	45.000000	-25.063869	2256.603608	-3526.662574	23.115705	-21.088148	726.922778	17.076779	10.766817	-21.255885	
4.7800	38.592530	9.770400	10.888924	-175.550740	825.170744	7.337064	16.689355	40.176170	43.505084	45.000000	-38.128249	-1167.387553	-1546.796078	145.942790	-150.069385	1454.754376	45.295056	18.075618	5.307015	9.655335	-45.000000	-42.619169	45.000000	-26.618807	2256.893866	-3526.342567	23.034255	-21.729406	726.921371	15.734803	10.823743	-21.181394	
4.7900	38.623141	9.961032	11.186175	-181.031794	826.655543	7.522305	16.632888	39.914597	43.276735	45.000000	-39.275816	-1167.535151	-1546.429149	145.883498	-150.144004	1455.387792	51.484718	17.748592	4.887157	9.764840	-45.000000	-42.119761	45.000000	-28.227472	2257.186251	-3526.063350	22.978346	-22.261655	726.898437	14.314980	10.942248	-21.081057	
4.8000	38.670759	10.119553	11.471515	-186.487449	827.968481	7.692050	16.584452	39.654337	43.028477	45.000000	-40.382078	-1167.657002	-1546.102930	145.840264	-150.031350	1456.191493	59.270531	17.303414	4.521878	9.858759	-45.000000	-41.649009	45.000000	-29.835832	2257.485964	-3525.828079	22.920787	-22.762121	726.870917	12.978107	11.058008	-20.973093	
4.8100	38.727629	10.273222	11.783222	-191.888039	829.111414	7.846444	16.547532	39.346485	42.783681	45.000000	-41.587480	-1167.757013	-1545.806009	145.792506	-149.734865	1457.194201	68.945137	16.768517	4.210491	9.953583	-45.000000	-41.178128	45.000000	-31.532399	2257.783423	-3525.629448	22.885971	-23.162066	726.837014	11.751866	11.163368	-20.863444	
4.8200	38.797403	10.427956	12.116096	-197.195364	830.100750	7.989335	16.507060	39.047098	42.525846	45.000000	-42.659824	-1167.875797	-1545.630678	145.783242	-148.652761	1458.318920	79.960800	16.098044	4.030415	10.030796	-45.000000	-40.706155	45.000000	-33.263546	2258.079652	-3525.465391	22.852884	-23.573760	726.823683	10.832242	11.206975	-20.784534	
4.8300	38.870491	10.564174	12.430202	-202.358844	830.970205	8.129279	16.489308	38.761370	42.261151	45.000000	-43.624043	-1167.998980	-1545.571070	145.808224	-146.837423	1459.518423	92.183180	15.384048	3.990882	10.108534	-45.000000	-40.278891	45.000000	-34.904105	2258.387899	-3525.353934	22.827968	-23.900594	726.796115	10.180168	11.249567	-20.733478	
4.8400	38.949844	10.677495	12.706105	-207.326637	831.756034	8.275438	16.450866	38.548297	41.961818	45.000000	-44.247379	-1168.140149	-1545.707650	145.935279	-143.607156	1460.717294	105.835732	14.639990	4.165335	10.159435	-45.000000	-39.876738	45.000000	-36.431093	2258.683540	-3525.285545	22.799864	-24.168236	726.768645	9.906560	11.243474	-20.730883	
4.8500	39.025584	10.750242	12.916424	-212.050366	832.490506	8.435799	16.393196	38.384222	41.646324	45.000000	-44.684834	-1168.261830	-1545.949643	146.131284	-139.667424	1461.831017	119.913517	14.025386	4.477625	10.196446	-45.000000	-39.507869	45.000000	-37.801622	2258.963888	-3525.257516	22.777833	-24.331412	726.724583	9.872747	11.224204	-20.757253	
4.8600	39.097844	10.787917	13.068569	-216.500292	833.183230	8.611809	16.308667	38.283391	41.333694	45.000000	-44.891258	-1168.398106	-1546.301579	146.391686	-135.258276	1462.777639	133.252714	13.513954	4.873458	10.231029	-45.000000	-39.150754	45.000000	-39.034539	2259.228427	-3525.258785	22.755189	-24.507478	726.692585	10.035812	11.191659	-20.816507	
